<svg width="16" height="16" viewBox="0 0 16 16" fill="none" xmlns="http://www.w3.org/2000/svg">
<path d="M4.91255 3.25244H1.53515C0.674467 3.25244 0 3.94387 0 4.82624V11.2C0 12.0824 0.674467 12.7738 1.53515 12.7738H4.91251C5.33648 12.7738 5.68011 12.4218 5.68011 11.9869V4.03934C5.68015 3.60471 5.33652 3.25244 4.91255 3.25244ZM4.14496 11.2H1.53515L1.52336 4.82727C1.52336 4.82727 1.52694 4.82624 1.53515 4.82624H4.14496V11.2Z" fill="white"/>
<path d="M11.6323 0.115048C11.4038 -0.0276424 11.1188 -0.0384062 10.8814 0.0872518L4.71484 3.33972L5.41719 4.73907L10.4648 2.07675V13.9234L5.41719 11.2608L4.71484 12.6604L10.8813 15.9129C10.9916 15.9711 11.1121 16 11.2324 16C11.3713 16 11.5097 15.9614 11.632 15.8849C11.8605 15.7422 12 15.4875 12 15.2131V0.786805C12 0.512435 11.8608 0.257738 11.6323 0.115048Z" fill="white"/>
<path d="M13.0055 6C12.8183 6 12.6665 6.2192 12.6665 6.48964C12.6665 6.76008 12.8183 6.97928 13.0055 6.97928C13.4478 6.97928 13.8077 7.49909 13.8077 8.13808C13.8077 8.77707 13.4479 9.29704 13.0055 9.29704C12.8183 9.29704 12.6665 9.51623 12.6665 9.78668C12.6665 10.0571 12.8183 10.2763 13.0055 10.2763C13.8217 10.2763 14.4857 9.31713 14.4857 8.13808C14.4857 6.95903 13.8217 6 13.0055 6Z" fill="white"/>
<path d="M13.0055 4C12.8183 4 12.6665 4.2192 12.6665 4.48964C12.6665 4.76008 12.8183 4.97928 13.0055 4.97928C14.2827 4.97928 15.3218 6.48017 15.3218 8.3251C15.3218 10.1792 14.2827 11.6874 13.0055 11.6874C12.8183 11.6874 12.6665 11.9066 12.6665 12.177C12.6665 12.4475 12.8183 12.6667 13.0055 12.6667C14.6565 12.6667 15.9998 10.7192 15.9998 8.3251C15.9998 5.94026 14.6565 4 13.0055 4Z" fill="white"/>
</svg>